<svg width="20" height="20" viewBox="0 0 20 20" fill="none" xmlns="http://www.w3.org/2000/svg">
<path d="M8.33334 10H11.6667" stroke="white" stroke-opacity="0.7" stroke-width="1.66667" stroke-linecap="round" stroke-linejoin="round"/>
<path d="M8.33334 6.66663H11.6667" stroke="white" stroke-opacity="0.7" stroke-width="1.66667" stroke-linecap="round" stroke-linejoin="round"/>
<path d="M11.6667 17.5V15C11.6667 14.558 11.4911 14.1341 11.1785 13.8215C10.866 13.509 10.442 13.3334 10 13.3334C9.55798 13.3334 9.13405 13.509 8.82149 13.8215C8.50893 14.1341 8.33334 14.558 8.33334 15V17.5" stroke="white" stroke-opacity="0.7" stroke-width="1.66667" stroke-linecap="round" stroke-linejoin="round"/>
<path d="M5 8.33337H3.33333C2.8913 8.33337 2.46738 8.50897 2.15482 8.82153C1.84226 9.13409 1.66666 9.55801 1.66666 10V15.8334C1.66666 16.2754 1.84226 16.6993 2.15482 17.0119C2.46738 17.3244 2.8913 17.5 3.33333 17.5H16.6667C17.1087 17.5 17.5326 17.3244 17.8452 17.0119C18.1577 16.6993 18.3333 16.2754 18.3333 15.8334V7.50004C18.3333 7.05801 18.1577 6.63409 17.8452 6.32153C17.5326 6.00897 17.1087 5.83337 16.6667 5.83337H15" stroke="white" stroke-opacity="0.7" stroke-width="1.66667" stroke-linecap="round" stroke-linejoin="round"/>
<path d="M5 17.5V4.16667C5 3.72464 5.17559 3.30072 5.48816 2.98816C5.80072 2.67559 6.22464 2.5 6.66667 2.5H13.3333C13.7754 2.5 14.1993 2.67559 14.5118 2.98816C14.8244 3.30072 15 3.72464 15 4.16667V17.5" stroke="white" stroke-opacity="0.7" stroke-width="1.66667" stroke-linecap="round" stroke-linejoin="round"/>
</svg>
