<svg width="20" height="20" viewBox="0 0 20 20" fill="none" xmlns="http://www.w3.org/2000/svg">
<path d="M13.3281 17.4932V15.8271C13.3281 14.9434 12.9771 14.0959 12.3522 13.471C11.7273 12.8462 10.8798 12.4951 9.99609 12.4951H4.99805C4.11434 12.4951 3.26682 12.8462 2.64195 13.471C2.01707 14.0959 1.66602 14.9434 1.66602 15.8271V17.4932" stroke="#0284C7" stroke-width="1.66602" stroke-linecap="round" stroke-linejoin="round"/>
<path d="M13.3281 2.60559C14.0426 2.79083 14.6754 3.20808 15.1272 3.79185C15.5789 4.37562 15.824 5.09286 15.824 5.831C15.824 6.56913 15.5789 7.28638 15.1272 7.87015C14.6754 8.45392 14.0426 8.87117 13.3281 9.0564" stroke="#0284C7" stroke-width="1.66602" stroke-linecap="round" stroke-linejoin="round"/>
<path d="M18.3262 17.4931V15.8271C18.3256 15.0889 18.0799 14.3717 17.6276 13.7882C17.1753 13.2047 16.542 12.788 15.8271 12.6034" stroke="#0284C7" stroke-width="1.66602" stroke-linecap="round" stroke-linejoin="round"/>
<path d="M7.49707 9.16309C9.3373 9.16309 10.8291 7.67128 10.8291 5.83105C10.8291 3.99082 9.3373 2.49902 7.49707 2.49902C5.65684 2.49902 4.16504 3.99082 4.16504 5.83105C4.16504 7.67128 5.65684 9.16309 7.49707 9.16309Z" stroke="#0284C7" stroke-width="1.66602" stroke-linecap="round" stroke-linejoin="round"/>
</svg>
