<svg width="17" height="16" viewBox="0 0 17 16" fill="none" xmlns="http://www.w3.org/2000/svg">
<path d="M13.9427 8.66668C13.9427 12 11.6094 13.6667 8.83606 14.6333C8.69084 14.6826 8.53309 14.6802 8.3894 14.6267C5.6094 13.6667 3.27606 12 3.27606 8.66668V4.00001C3.27606 3.8232 3.3463 3.65363 3.47132 3.52861C3.59635 3.40359 3.76592 3.33335 3.94273 3.33335C5.27606 3.33335 6.94273 2.53335 8.10273 1.52001C8.24397 1.39935 8.42363 1.33305 8.6094 1.33305C8.79516 1.33305 8.97483 1.39935 9.11606 1.52001C10.2827 2.54001 11.9427 3.33335 13.2761 3.33335C13.4529 3.33335 13.6224 3.40359 13.7475 3.52861C13.8725 3.65363 13.9427 3.8232 13.9427 4.00001V8.66668Z" stroke="white" stroke-width="1.33333" stroke-linecap="round" stroke-linejoin="round"/>
</svg>
