<svg width="32" height="33" viewBox="0 0 32 33" fill="none" xmlns="http://www.w3.org/2000/svg">
<path d="M2.66663 13.1666C2.66665 11.6829 3.11675 10.2341 3.95747 9.01152C4.79819 7.78896 5.98998 6.85018 7.37544 6.31917C8.76089 5.78816 10.2748 5.6899 11.7173 6.03736C13.1598 6.38483 14.4629 7.16168 15.4546 8.26531C15.5245 8.33999 15.6089 8.39953 15.7027 8.44024C15.7965 8.48095 15.8977 8.50195 16 8.50195C16.1022 8.50195 16.2034 8.48095 16.2972 8.44024C16.391 8.39953 16.4754 8.33999 16.5453 8.26531C17.5339 7.15451 18.8373 6.37113 20.2821 6.01944C21.727 5.66775 23.2446 5.76443 24.6331 6.29662C26.0216 6.8288 27.2151 7.77124 28.0548 8.99851C28.8944 10.2258 29.3404 11.6797 29.3333 13.1666C29.3333 16.22 27.3333 18.5 25.3333 20.5L18.0106 27.584C17.7622 27.8693 17.4559 28.0985 17.112 28.2564C16.7682 28.4142 16.3947 28.4971 16.0163 28.4995C15.638 28.5019 15.2635 28.4238 14.9177 28.2703C14.5719 28.1168 14.2627 27.8915 14.0106 27.6093L6.66663 20.5C4.66663 18.5 2.66663 16.2333 2.66663 13.1666Z" fill="white" stroke="white" stroke-width="2.66667" stroke-linecap="round" stroke-linejoin="round"/>
</svg>
