<svg width="17" height="16" viewBox="0 0 17 16" fill="none" xmlns="http://www.w3.org/2000/svg">
<path d="M1.87468 8.232C1.81912 8.08232 1.81912 7.91767 1.87468 7.768C2.41581 6.4559 3.33435 5.33402 4.51386 4.5446C5.69336 3.75517 7.08071 3.33374 8.50001 3.33374C9.91932 3.33374 11.3067 3.75517 12.4862 4.5446C13.6657 5.33402 14.5842 6.4559 15.1253 7.768C15.1809 7.91767 15.1809 8.08232 15.1253 8.232C14.5842 9.54409 13.6657 10.666 12.4862 11.4554C11.3067 12.2448 9.91932 12.6663 8.50001 12.6663C7.08071 12.6663 5.69336 12.2448 4.51386 11.4554C3.33435 10.666 2.41581 9.54409 1.87468 8.232Z" stroke="#0A0A0A" stroke-width="1.33333" stroke-linecap="round" stroke-linejoin="round"/>
<path d="M8.5 10C9.60457 10 10.5 9.10457 10.5 8C10.5 6.89543 9.60457 6 8.5 6C7.39543 6 6.5 6.89543 6.5 8C6.5 9.10457 7.39543 10 8.5 10Z" stroke="#0A0A0A" stroke-width="1.33333" stroke-linecap="round" stroke-linejoin="round"/>
</svg>
