<svg width="28" height="28" viewBox="0 0 28 28" fill="none" xmlns="http://www.w3.org/2000/svg">
<path d="M23.3203 15.1582C23.3203 20.9883 19.2393 23.9033 14.3886 25.594C14.1346 25.6801 13.8587 25.676 13.6074 25.5824C8.74512 23.9033 4.66406 20.9883 4.66406 15.1582V6.9961C4.66406 6.68685 4.78691 6.39027 5.00558 6.1716C5.22425 5.95293 5.52083 5.83008 5.83008 5.83008C8.16211 5.83008 11.0771 4.43086 13.106 2.65852C13.353 2.44747 13.6673 2.33151 13.9922 2.33151C14.3171 2.33151 14.6313 2.44747 14.8784 2.65852C16.9189 4.44252 19.8223 5.83008 22.1543 5.83008C22.4635 5.83008 22.7601 5.95293 22.9788 6.1716C23.1975 6.39027 23.3203 6.68685 23.3203 6.9961V15.1582Z" stroke="#3DD5D9" stroke-width="2.33203" stroke-linecap="round" stroke-linejoin="round"/>
</svg>
