<svg width="17" height="16" viewBox="0 0 17 16" fill="none" xmlns="http://www.w3.org/2000/svg">
<path d="M13.1667 7.33333H3.83333C3.09695 7.33333 2.5 7.93029 2.5 8.66667V13.3333C2.5 14.0697 3.09695 14.6667 3.83333 14.6667H13.1667C13.903 14.6667 14.5 14.0697 14.5 13.3333V8.66667C14.5 7.93029 13.903 7.33333 13.1667 7.33333Z" stroke="#717182" stroke-width="1.33333" stroke-linecap="round" stroke-linejoin="round"/>
<path d="M5.16675 7.33333V4.66667C5.16675 3.78261 5.51794 2.93476 6.14306 2.30964C6.76818 1.68452 7.61603 1.33333 8.50008 1.33333C9.38414 1.33333 10.232 1.68452 10.8571 2.30964C11.4822 2.93476 11.8334 3.78261 11.8334 4.66667V7.33333" stroke="#717182" stroke-width="1.33333" stroke-linecap="round" stroke-linejoin="round"/>
</svg>
